<svg version="1.1" xmlns="http://www.w3.org/2000/svg" xmlns:xlink="http://www.w3.org/1999/xlink" x="0px" y="0px"
	 viewBox="0 0 2200 2200" style="enable-background:new 0 0 2200 2200;" xml:space="preserve">
<g id="background">
	<rect y="0" style="fill:#FFFFFF;" width="20" height="20"/>
</g>
<g id="Objects">
	<g>
		<g>
			<path style="fill:#EA3D3D;" d="M1314.123,623.802L986.609,399.493c-8.489-5.81-17.616-10.245-27.072-13.305v123.021
				c17.057,10.777,28.385,29.804,28.385,51.474c0,33.6-27.24,60.841-60.841,60.841c-33.6,0-60.841-27.24-60.841-60.841
				c0-21.67,11.327-40.696,28.385-51.474V386.187c-9.456,3.06-18.583,7.495-27.072,13.305L540.039,623.802
				c-28.677,19.647-45.823,52.166-45.823,86.919v1049.236c0,58.188,47.163,105.351,105.351,105.351h655.027
				c58.188,0,105.351-47.163,105.351-105.351V710.721C1359.946,675.967,1342.8,643.449,1314.123,623.802z"/>
			<path style="fill:#EA3D3D;" d="M1702.725,1625.476L1452.808,606.443c-8.276-33.76-32.678-61.257-65.205-73.507l-371.519-139.838
				c-4.373-1.65-8.826-2.989-13.288-4.027l321.349,220.096c33.529,22.965,53.54,60.929,53.54,101.555v1049.236
				c0,20.623-5.1,40.076-14.104,57.168l261.919-64.238C1682.013,1739.032,1716.589,1681.988,1702.725,1625.476z"/>
			<path style="fill:#EA3D3D;" d="M927.081,556.748L927.081,556.748c-11.069,0-20.042-8.973-20.042-20.042V236.534
				c0-11.069,8.973-20.042,20.042-20.042h0c11.069,0,20.042,8.973,20.042,20.042v300.173
				C947.123,547.775,938.15,556.748,927.081,556.748z"/>
			<g>
				<path style="fill:#FFFFFF;" d="M1155.292,1283.464c-18.11-21.424-43.126-32.142-75.052-32.142
					c-31.932,0-57.053,10.718-75.374,32.142c-18.321,21.431-27.482,50.574-27.482,87.428v0.321c0,36.643,9.16,65.732,27.482,87.267
					c18.321,21.536,43.442,32.304,75.374,32.304c31.926,0,56.942-10.768,75.052-32.304c18.106-21.535,27.161-50.624,27.161-87.267
					v-0.321C1182.453,1334.039,1173.397,1304.895,1155.292,1283.464z M1123.31,1371.213c0,22.933-3.751,40.61-11.25,53.035
					c-7.503,12.43-18.11,18.643-31.82,18.643c-14.143,0-24.966-6.213-32.464-18.643c-7.503-12.425-11.25-30.103-11.25-53.035v-0.321
					c0-22.926,3.746-40.55,11.25-52.875c7.498-12.319,18.321-18.482,32.464-18.482c13.711,0,24.318,6.162,31.82,18.482
					c7.499,12.325,11.25,29.949,11.25,52.875V1371.213z"/>
				<path style="fill:#FFFFFF;" d="M849.617,1225.769c18.106-21.535,27.161-50.729,27.161-87.588v-0.322
					c0-36.642-9.055-65.676-27.161-87.106c-18.11-21.425-43.231-32.143-75.373-32.143c-31.715,0-56.731,10.718-75.053,32.143
					c-18.321,21.43-27.482,50.464-27.482,87.106v0.322c0,36.858,9.16,66.053,27.482,87.588
					c18.321,21.536,43.337,32.304,75.053,32.304C806.386,1258.073,831.508,1247.305,849.617,1225.769z M742.101,1191.538
					c-7.503-12.426-11.25-30.104-11.25-53.035v-0.321c0-22.926,3.747-40.55,11.25-52.874c7.498-12.32,18.211-18.482,32.143-18.482
					c13.926,0,24.639,6.162,32.142,18.482c7.499,12.324,11.25,29.948,11.25,52.874v0.321c0,22.932-3.751,40.609-11.25,53.035
					c-7.503,12.429-18.216,18.642-32.142,18.642C760.312,1210.18,749.599,1203.967,742.101,1191.538z"/>
				<polygon style="fill:#FFFFFF;" points="1042.633,1022.79 747.565,1486.604 812.493,1486.604 1106.917,1022.79 				"/>
			</g>
		</g>
		<ellipse style="fill:#CECECE;" cx="1061.546" cy="1958.504" rx="494.055" ry="25.005"/>
	</g>
</g>
</svg>